<svg xmlns="http://www.w3.org/2000/svg" width="744" height="524" version="1.0"><ellipse cx="377" cy="200" rx="340" ry="148" style="fill:none;stroke:#000;stroke-width:5px"/><g style="fill:none;stroke:#000;stroke-width:2"><ellipse cx="435" cy="317" rx="152" ry="64"/><ellipse cx="312" cy="465" rx="78" ry="31"/><ellipse cx="210" cy="480.5" rx="30" ry="13"/><path d="m181 483.6-24.7-21M188 490l-45.1-6.4"/></g><path d="m234.5 460.1 49.2-151.2m74.9 63.3-166.8-47.7m340.5-56.9c45.2 14.4 65.4 24.8 109.4 24.8" style="fill:none;stroke:red;stroke-width:2"/><g style="fill:#d0d012"><ellipse cx="351" cy="50" rx="12" ry="18"/><ellipse cx="151" cy="308" rx="12" ry="18"/><ellipse cx="431" cy="345" rx="12" ry="18"/><ellipse cx="671" cy="276" rx="12" ry="18"/></g><g style="font-family:Arial"><g style="font-size:40px;fill:#d0d012"><text x="307" y="102">CMS</text><text x="136" y="280">ALICE</text><text x="419" y="319">ATLAS</text><text x="584" y="251">LHCb</text></g><g style="font-size:40px;fill:#000"><text x="336.7" y="202.2">LHC</text><text x="322.7" y="303.8">SPS</text><text x="284.9" y="479.2">PS</text></g><g style="font-size:32px;fill:#000"><text x="132.5" y="456">p</text><text x="98.6" y="490">Pb</text></g></g></svg>