<svg xmlns="http://www.w3.org/2000/svg" xml:space="preserve" style="fill-rule:evenodd;clip-rule:evenodd;stroke-miterlimit:10" viewBox="0 0 202 134"><clipPath id="a"><path d="M.146.009h201.669v133.867H.146z" clip-rule="nonzero"/></clipPath><g clip-path="url(#a)"><path d="M35.804 119.274a18.18 18.18 0 0 0-6.216-17.08 18.18 18.18 0 0 0-14.84-3.976" style="fill:none;fill-rule:nonzero;stroke:#23373b;stroke-width:.8px"/><path d="M44.754 120.852A27.266 27.266 0 0 0 13.17 89.268" style="fill:none;fill-rule:nonzero;stroke:#23373b;stroke-width:.8px"/><path d="M53.705 122.43a36.355 36.355 0 0 0-42.113-42.112" style="fill:none;fill-rule:nonzero;stroke:#23373b;stroke-width:.8px"/><path d="M62.654 124.008a45.45 45.45 0 0 0-15.541-42.699 45.45 45.45 0 0 0-37.099-9.941" style="fill:none;fill-rule:nonzero;stroke:#23373b;stroke-width:.8px"/><path d="M80.555 127.165a63.63 63.63 0 0 0-21.759-59.779A63.62 63.62 0 0 0 6.858 53.468" style="fill:none;fill-rule:nonzero;stroke:#23373b;stroke-width:.8px"/><path d="M98.455 130.321A81.8 81.8 0 0 0 70.48 53.462 81.8 81.8 0 0 0 3.701 35.568" style="fill:none;fill-rule:nonzero;stroke:#23373b;stroke-width:.8px"/><path d="M116.355 133.477c6.2-35.168-6.837-70.984-34.192-93.938A100 100 0 0 0 .545 17.667" style="fill:none;fill-rule:nonzero;stroke:#23373b;stroke-width:.8px"/><path d="M17.904 116.118c42.503-19.82 64.721-51.548 68.245-91.837" style="fill:none;fill-rule:nonzero;stroke:#8cc63f;stroke-width:1.6px"/><path d="m86.48 20.496-1.574 3.275 2.556.224z" style="fill:#8cc63f;fill-rule:nonzero;stroke:#8cc63f;stroke-width:1.6px"/><path d="M35.828 107.504a1.918 1.918 0 1 0-1.917 1.916 1.917 1.917 0 0 0 1.917-1.916m7.577-5.082a1.916 1.916 0 1 0-3.832 0 1.916 1.916 0 0 0 3.832 0m7.181-5.644a1.916 1.916 0 1 0-3.832 0 1.916 1.916 0 0 0 3.832 0m6.789-6.254a1.917 1.917 0 1 0-3.834.002 1.917 1.917 0 0 0 3.834-.002M69.292 76.13a1.918 1.918 0 0 0-3.833 0 1.918 1.918 0 0 0 3.833 0m9.343-16.872a1.918 1.918 0 0 0-3.833 0 1.917 1.917 0 0 0 3.833 0m6.355-18.931a1.917 1.917 0 1 0-3.834 0 1.917 1.917 0 0 0 3.834 0" style="fill:#231f20"/><path d="M17.904 116.118c52.585-9.271 87.626-51.03 87.626-104.426L71.676.806C67.334 50.43 53.128 80.894 17.904 116.118" style="fill:none;fill-rule:nonzero;stroke:#f58038;stroke-width:1.6px;stroke-dasharray:2.4,2.4"/><path d="m38.129 107.701-2.904-3.46a3.194 3.194 0 0 1 .394-4.5L51.61 86.323a3.194 3.194 0 0 1 4.5.393l2.904 3.461a3.194 3.194 0 0 1-.394 4.5l-15.991 13.418a3.193 3.193 0 0 1-4.5-.394Zm97.92-67.481V28.432a3.194 3.194 0 0 1 3.194-3.194h2.7a3.194 3.194 0 0 1 3.194 3.194V40.22a3.194 3.194 0 0 1-3.194 3.194h-2.7a3.194 3.194 0 0 1-3.194-3.194Z" style="fill:none;fill-rule:nonzero;stroke:#00aeef;stroke-width:1.6px"/><path d="M142.509 39.779a1.918 1.918 0 0 0-3.833 0 1.918 1.918 0 0 0 3.833 0m0-5.453a1.918 1.918 0 0 0-3.833 0 1.918 1.918 0 0 0 3.833 0m0-5.453a1.917 1.917 0 1 0-3.834.002 1.917 1.917 0 0 0 3.834-.002" style="fill:#231f20"/><path d="M136.049 70.678c5.441-4.566 7.45-10.085 6.216-17.08h-12.433c5.441 4.565 7.45 10.085 6.217 17.08Z" style="fill:none;fill-rule:nonzero;stroke:#f58038;stroke-width:1.6px;stroke-dasharray:2.4,2.4"/><path d="M136.049 97.942c3.544-6.139 3.544-12.038 3.227-12.586" style="fill:none;fill-rule:nonzero;stroke:#8cc63f;stroke-width:1.6px"/><path d="m137.376 82.066.589 3.585 2.222-1.283z" style="fill:#8cc63f;fill-rule:nonzero;stroke:#8cc63f;stroke-width:1.6px"/><text x="173.808" y="138.581" style="font-family:&quot;Helvetica&quot;;font-size:8.744px;fill:#23373b" transform="translate(-24.96 -102)">Seeding</text><text x="173.808" y="165.805" style="font-family:&quot;Helvetica&quot;;font-size:8.744px;fill:#23373b" transform="translate(-24.96 -102)">Track ﬁnding</text><text x="173.808" y="193.068" style="font-family:&quot;Helvetica&quot;;font-size:8.744px;fill:#23373b" transform="translate(-24.96 -102)">Track ﬁtting</text></g></svg>